<?xml version="1.0" standalone="no"?>
<!DOCTYPE svg PUBLIC "-//W3C//DTD SVG 20010904//EN"
 "http://www.w3.org/TR/2001/REC-SVG-20010904/DTD/svg10.dtd">
<svg version="1.0" xmlns="http://www.w3.org/2000/svg"
 width="1152.000000pt" height="1152.000000pt" viewBox="0 0 1152.000000 1152.000000"
 preserveAspectRatio="xMidYMid meet">
<metadata>
Created by potrace 1.11, written by Peter Selinger 2001-2013
</metadata>
<g transform="translate(0.000000,1152.000000) scale(0.100000,-0.100000)"
fill="#000000" stroke="none">
<path d="M479 10268 c-1 -24 -1 -47 0 -52 1 -5 2 -54 2 -110 -1 -251 0 -299 4
-306 3 -5 1 -11 -5 -15 -6 -4 -8 -10 -5 -15 3 -5 5 -54 5 -107 -1 -54 0 -120
1 -148 0 -27 1 -56 0 -62 0 -7 -1 -19 -2 -25 -1 -25 0 -184 2 -233 1 -27 1
-56 0 -62 -2 -28 -2 -43 -1 -168 0 -71 0 -134 -1 -140 -1 -5 -1 -14 0 -19 1
-5 2 -68 1 -140 0 -133 -1 -201 -1 -291 0 -27 0 -57 0 -65 0 -8 0 -62 1 -120
0 -58 0 -149 0 -204 0 -54 2 -102 5 -106 3 -5 1 -11 -5 -15 -6 -4 -8 -10 -5
-15 3 -5 5 -54 5 -107 -1 -54 0 -120 1 -148 0 -27 1 -56 0 -62 0 -7 -1 -19 -2
-25 -1 -25 0 -184 2 -233 1 -27 1 -56 0 -62 -2 -28 -2 -43 -1 -168 0 -71 0
-134 -1 -140 -1 -5 -1 -14 0 -19 1 -5 2 -68 1 -140 0 -133 -1 -201 -1 -291 0
-27 0 -57 0 -65 0 -8 0 -62 1 -120 0 -58 0 -149 0 -204 0 -54 2 -102 5 -106 3
-5 1 -11 -5 -15 -6 -4 -8 -11 -5 -16 4 -5 6 -53 5 -106 -1 -54 -1 -120 0 -148
1 -27 2 -56 1 -62 0 -7 -1 -19 -2 -25 -1 -25 0 -184 2 -233 1 -27 1 -56 0 -62
-2 -28 -2 -43 -1 -168 0 -71 0 -134 -1 -140 -1 -5 -1 -14 0 -19 1 -5 2 -68 1
-140 0 -133 -1 -201 -1 -291 0 -27 0 -57 0 -65 0 -8 0 -62 1 -120 0 -58 0
-149 0 -204 0 -54 2 -102 5 -106 3 -5 1 -11 -5 -15 -6 -4 -8 -10 -5 -15 3 -5
5 -54 5 -107 -1 -54 0 -120 1 -148 0 -27 1 -56 0 -62 -2 -24 -2 -38 -2 -118 0
-44 0 -87 -1 -95 0 -8 0 -37 1 -65 0 -27 1 -59 0 -70 0 -11 0 -62 1 -114 0
-51 -4 -98 -9 -105 -10 -12 -120 -14 -139 -2 -6 4 -13 2 -17 -3 -3 -6 -15 -7
-28 -2 -12 5 -31 5 -42 1 -11 -4 -27 -4 -36 1 -8 4 -20 5 -26 1 -6 -4 -50 -7
-97 -6 l-86 2 0 -514 c0 -511 0 -513 22 -551 12 -21 25 -40 28 -43 3 -3 126
-186 273 -408 l269 -402 5168 0 5168 0 79 116 c43 64 83 124 88 132 6 9 52 78
103 153 50 75 92 142 92 147 0 6 4 12 8 14 5 2 57 75 115 163 l107 160 0 516
0 516 -53 0 c-29 -1 -58 2 -65 7 -6 4 -12 4 -12 -1 0 -10 -91 -10 -108 1 -7 4
-12 4 -12 -1 0 -6 -112 -9 -210 -4 -18 1 -21 7 -19 53 0 29 0 100 0 158 -1 58
-1 149 -1 204 0 54 -2 102 -5 106 -3 5 -1 11 5 15 6 4 8 10 5 15 -5 8 -9 280
-4 305 1 6 1 14 0 19 -1 5 -2 68 -1 140 0 133 1 201 1 291 0 28 0 57 0 65 0 8
0 62 -1 120 0 58 0 149 0 204 0 54 -2 102 -5 106 -3 5 -1 11 5 15 6 4 8 10 5
15 -5 8 -9 280 -4 305 1 6 1 14 0 19 -1 5 -2 68 -1 140 0 133 1 201 1 291 0
28 0 57 0 65 0 8 0 62 -1 120 0 58 0 149 0 204 0 54 -2 102 -5 106 -3 5 -1 11
5 15 6 4 8 10 5 15 -5 8 -9 280 -4 305 1 6 1 14 0 19 -1 5 -2 68 -1 140 0 133
1 201 1 291 0 28 0 57 0 65 0 8 0 62 -1 120 0 58 0 149 0 204 0 54 -2 102 -5
106 -3 5 -1 11 5 15 6 4 8 10 5 15 -5 8 -9 280 -4 305 1 6 1 14 0 19 -1 5 -2
68 -1 140 0 133 1 201 1 291 0 28 0 57 0 65 0 8 0 62 -1 120 0 58 0 149 0 204
0 54 -2 102 -5 106 -3 5 -1 11 5 15 6 4 8 10 5 15 -5 8 -9 280 -4 305 1 6 1
14 0 19 -1 5 -2 68 -1 140 0 133 1 201 1 291 0 28 0 57 0 65 0 8 0 62 -1 120
0 58 0 149 0 204 0 54 -2 102 -5 106 -3 5 -1 11 5 15 6 4 8 11 5 16 -4 5 -6
61 -6 124 l1 115 -5280 0 -5280 0 -1 -42z m38 -7625 c-3 -5 69 -8 159 -8 90 0
164 4 164 8 0 5 5 5 12 1 16 -10 308 -11 308 0 0 5 5 5 13 0 6 -5 32 -9 57 -8
25 1 59 3 75 3 17 1 83 0 148 0 64 -1 120 1 123 4 3 3 16 3 28 -1 27 -9 88 -8
103 1 6 4 14 3 17 -2 3 -4 23 -5 45 -1 22 4 44 4 49 1 13 -8 231 -6 238 2 4 3
16 3 28 -1 27 -9 88 -8 103 1 6 4 14 3 17 -2 3 -4 23 -5 45 -1 22 4 44 4 49 1
13 -8 231 -6 238 2 4 3 16 3 28 -1 27 -9 88 -8 103 1 6 4 14 3 17 -2 3 -4 23
-5 45 -1 22 4 44 4 49 1 13 -8 231 -6 238 2 4 3 16 3 28 -1 27 -9 88 -8 103 1
6 4 14 3 17 -2 3 -4 23 -5 45 -1 22 4 44 4 49 1 9 -5 228 -6 242 0 3 1 10 0
15 -1 31 -6 107 -5 111 2 3 5 10 5 16 2 16 -10 88 -10 88 -1 0 5 5 5 12 1 16
-10 298 -11 298 -1 0 5 5 5 12 1 16 -10 308 -11 308 -1 0 5 5 5 12 1 16 -10
308 -11 308 -1 0 5 5 5 12 1 16 -10 308 -11 308 -1 0 5 5 5 12 1 14 -9 236
-10 244 -1 3 3 16 3 28 -1 27 -9 88 -8 103 1 6 4 14 3 17 -2 3 -4 23 -5 45 -1
22 4 44 4 49 1 13 -8 231 -6 238 2 4 3 16 3 28 -1 27 -9 88 -8 103 1 6 4 14 3
17 -2 3 -4 23 -5 45 -1 22 4 44 4 49 1 13 -8 227 -5 240 3 6 3 13 3 16 -2 3
-5 20 -7 38 -5 45 3 89 4 181 1 44 -2 81 0 83 4 3 4 15 4 27 0 28 -9 88 -9
104 1 6 4 14 3 17 -2 3 -4 23 -5 45 -1 22 4 44 4 49 1 13 -8 231 -6 238 2 4 3
16 3 28 -1 27 -9 88 -8 103 1 6 4 14 3 17 -2 3 -4 23 -5 45 -1 22 4 44 4 49 1
9 -5 228 -6 242 0 3 1 10 0 15 -1 31 -6 107 -5 111 2 3 5 10 5 16 2 15 -10
238 -10 238 -1 0 5 5 5 12 1 16 -10 308 -11 308 -1 0 5 5 5 12 1 16 -10 308
-11 308 -1 0 5 5 5 12 1 16 -10 308 -11 308 0 0 5 5 5 13 0 6 -5 32 -9 57 -8
25 1 59 3 75 3 17 1 83 0 148 0 64 -1 120 1 123 4 3 3 16 3 28 -1 27 -9 88 -8
103 1 6 4 14 3 17 -2 3 -4 23 -5 45 -1 22 4 44 4 49 1 13 -8 231 -6 238 2 4 3
16 3 28 -1 27 -9 88 -8 103 1 6 4 14 3 17 -2 3 -4 23 -5 45 -1 22 4 44 4 49 1
13 -8 231 -6 238 2 4 3 16 3 28 -1 27 -9 88 -8 103 1 6 4 14 3 17 -2 3 -4 23
-5 45 -1 22 4 44 4 49 1 13 -8 227 -5 240 3 6 3 13 3 16 -2 3 -5 20 -7 38 -5
36 3 78 3 148 2 25 -1 50 0 55 1 6 1 12 1 15 0 3 -1 19 -3 35 -4 l30 -1 2 -70
c0 -38 2 -95 3 -125 1 -30 1 -59 0 -65 -1 -5 -1 -37 0 -69 1 -57 -23 -136 -42
-136 -5 0 -8 -6 -8 -14 0 -8 -3 -16 -8 -18 -11 -5 -74 -98 -66 -98 4 0 1 -6
-7 -12 -9 -7 -64 -86 -122 -175 -59 -89 -112 -165 -118 -169 -6 -4 -37 -6 -68
-6 -31 1 -88 2 -128 3 -40 0 -77 -2 -82 -6 -6 -3 -11 -1 -11 5 0 6 -4 9 -9 6
-7 -5 -84 -7 -161 -5 -8 0 -67 0 -130 0 -63 -1 -122 0 -130 0 -8 0 -44 0 -80
0 -36 0 -74 0 -85 0 -83 1 -222 0 -232 0 -29 -3 -52 -3 -118 -2 -38 1 -94 0
-123 -1 -28 -2 -52 1 -52 5 0 5 -4 6 -9 3 -7 -5 -70 -7 -163 -5 -10 0 -70 0
-133 0 -63 0 -123 0 -132 0 -10 0 -76 0 -148 0 -166 0 -196 -1 -207 -7 -4 -3
-8 0 -8 6 0 6 -4 9 -9 6 -7 -5 -84 -7 -161 -5 -8 0 -67 0 -130 0 -63 -1 -122
0 -130 0 -8 0 -44 0 -80 0 -36 0 -74 0 -85 0 -83 1 -222 0 -232 0 -29 -3 -52
-3 -118 -2 -38 1 -94 0 -123 -1 -28 -2 -52 1 -52 5 0 5 -4 6 -9 3 -7 -5 -70
-7 -163 -5 -10 0 -70 0 -133 0 -63 0 -123 0 -132 0 -10 0 -76 0 -148 0 -166 0
-196 -1 -207 -7 -4 -3 -8 0 -8 6 0 6 -4 9 -9 6 -7 -5 -84 -7 -161 -5 -8 0 -67
0 -130 0 -63 -1 -122 0 -130 0 -8 0 -44 0 -80 0 -36 0 -74 0 -85 0 -83 1 -222
0 -232 0 -27 -3 -50 -3 -118 -2 -38 1 -94 0 -123 -2 -28 -1 -52 2 -52 6 0 5
-4 6 -9 3 -7 -5 -70 -7 -163 -5 -10 0 -70 0 -133 0 -63 0 -123 0 -132 0 -10 0
-76 0 -148 0 -166 0 -196 -1 -207 -7 -4 -3 -8 0 -8 6 0 6 -4 9 -9 6 -7 -5 -84
-7 -161 -5 -8 0 -67 0 -130 0 -63 -1 -122 0 -130 0 -8 0 -44 0 -80 0 -36 0
-74 0 -85 0 -83 1 -222 0 -232 0 -29 -3 -52 -3 -118 -2 -38 1 -94 0 -123 -1
-28 -2 -52 1 -52 5 0 5 -4 6 -9 3 -7 -5 -70 -7 -163 -5 -10 0 -70 0 -133 0
-63 0 -123 0 -132 0 -10 0 -76 0 -148 0 -166 0 -196 -1 -207 -7 -4 -3 -8 0 -8
6 0 6 -4 9 -9 6 -7 -5 -84 -7 -161 -5 -8 0 -67 0 -130 0 -63 -1 -122 0 -130 0
-8 0 -44 0 -80 0 -36 0 -74 0 -85 0 -83 1 -222 0 -232 0 -29 -3 -52 -3 -118
-2 -38 1 -94 0 -123 -1 -28 -2 -52 1 -52 5 0 5 -4 6 -9 3 -7 -5 -70 -7 -163
-5 -55 0 -260 0 -298 -1 -171 -5 -250 -4 -250 3 0 5 -4 5 -10 2 -5 -3 -10 1
-10 9 0 9 -3 16 -7 16 -5 0 -21 23 -38 50 -16 27 -33 50 -37 50 -5 0 -8 5 -8
10 0 6 -19 38 -42 71 -55 78 -75 109 -89 137 -7 12 -16 22 -21 22 -4 0 -8 7
-8 15 0 8 -4 15 -10 15 -5 0 -10 5 -10 10 0 6 -20 39 -45 75 -25 35 -45 74
-46 87 0 13 0 79 1 149 1 69 1 129 -1 135 -1 5 -1 30 0 56 1 35 5 48 19 51 9
3 18 5 20 6 2 0 1 -2 -1 -6z"/>
<path d="M4667 2404 c-3 -3 -28 -5 -56 -6 -28 0 -54 -4 -57 -9 -3 -5 -1 -9 5
-9 10 0 9 -25 -2 -36 -3 -4 -2 -14 3 -23 5 -10 5 -23 0 -31 -5 -8 -5 -21 1
-31 6 -12 5 -19 -4 -22 -9 -4 -9 -6 0 -6 9 -1 10 -8 3 -26 -7 -18 -6 -25 2
-25 9 0 9 -3 0 -12 -7 -7 -8 -17 -2 -29 7 -11 7 -20 0 -24 -7 -4 -7 -12 0 -25
7 -13 7 -21 0 -25 -6 -4 -7 -12 -1 -22 4 -9 5 -31 1 -49 -4 -19 -4 -34 0 -34
5 0 6 -9 3 -19 -4 -15 0 -20 13 -20 28 -1 112 -1 127 0 6 0 50 -1 97 -1 47 -1
90 -1 95 0 6 1 15 1 20 0 6 -1 31 -2 57 -2 53 -1 85 17 68 37 -5 6 -7 14 -4
18 9 8 11 77 2 77 -3 0 -3 14 2 30 5 17 6 30 2 30 -9 0 -7 68 1 76 4 4 2 15
-4 25 -5 11 -6 19 -2 19 4 0 8 14 8 30 0 17 -2 30 -5 30 -7 0 -4 59 3 66 3 4
2 15 -4 26 -8 14 -18 19 -35 15 -13 -2 -24 0 -24 6 0 6 -5 6 -12 1 -7 -5 -35
-8 -63 -7 -63 3 -78 3 -140 0 -27 -1 -60 1 -71 5 -12 4 -24 5 -27 2z"/>
<path d="M5656 2402 c-3 -5 -35 -7 -71 -5 -52 3 -66 1 -62 -9 2 -7 0 -21 -4
-30 -6 -10 -5 -19 1 -23 7 -4 7 -13 0 -26 -6 -10 -7 -19 -2 -19 5 0 6 -22 2
-50 -4 -27 -4 -50 -1 -50 8 0 6 -58 -2 -66 -3 -4 -1 -16 5 -27 8 -16 8 -22 0
-25 -8 -2 -9 -9 -2 -21 5 -10 7 -21 3 -25 -9 -9 -9 -76 0 -76 5 0 5 -5 1 -11
-10 -17 16 -28 47 -19 16 5 29 6 29 2 0 -6 67 -7 95 -2 6 2 15 2 20 1 26 -5
216 -2 225 4 5 3 10 2 10 -3 0 -5 11 -7 24 -5 25 5 40 41 25 64 -4 7 -3 21 2
30 5 10 5 20 1 23 -9 5 -8 59 2 75 4 5 2 12 -4 16 -6 4 -7 11 -4 17 10 15 11
68 2 68 -4 0 -3 14 2 30 5 17 5 30 2 30 -9 0 -7 64 3 79 3 6 2 11 -3 11 -6 0
-8 10 -4 22 3 14 2 19 -6 14 -7 -4 -12 -2 -12 4 0 7 -7 8 -17 3 -10 -5 -29 -8
-43 -6 -50 4 -66 4 -150 2 -48 -2 -91 0 -97 4 -7 4 -14 4 -17 -1z"/>
<path d="M6637 2403 c-3 -5 -38 -7 -79 -7 -75 2 -94 -7 -78 -36 5 -9 5 -22 0
-30 -5 -9 -5 -19 1 -26 7 -8 6 -14 -1 -19 -7 -4 -7 -12 0 -26 8 -13 7 -19 0
-19 -7 0 -8 -6 0 -19 7 -13 7 -22 0 -26 -7 -4 -7 -12 0 -25 7 -13 7 -21 0 -25
-6 -4 -7 -13 -1 -24 6 -10 6 -23 1 -31 -5 -8 -5 -21 1 -31 5 -10 6 -20 1 -23
-7 -4 -7 -64 0 -97 4 -18 46 -28 74 -18 12 4 25 5 28 2 3 -3 29 -5 58 -4 69 2
66 2 121 -1 26 -2 47 1 47 5 0 5 5 5 11 1 14 -9 124 -8 139 1 8 5 8 10 0 20
-6 7 -7 16 -2 19 10 6 9 42 -1 52 -3 4 -2 15 3 25 7 11 7 20 0 24 -6 4 -6 15
0 30 6 16 6 25 0 25 -5 0 -6 8 -3 17 6 16 8 66 3 78 -6 14 -5 31 1 40 4 6 4
17 0 24 -5 7 -5 28 -1 47 4 19 4 34 0 34 -5 0 -6 10 -2 22 3 14 2 19 -6 14 -7
-4 -12 -2 -12 4 0 6 -5 8 -11 4 -16 -9 -110 -11 -116 -1 -2 4 -9 5 -15 1 -14
-9 -131 -9 -145 -1 -7 4 -14 4 -16 0z"/>
</g>
</svg>
