<svg xmlns="http://www.w3.org/2000/svg" width="72" height="56.927" viewBox="0 0 72 56.927"><path fill="#D5D5D5" d="M6 2.996h60v41.946H6z"/><path fill="#2D2D2D" d="M69 44.942V0H3v44.942H0v6.446l3.697 5.538h64.605L72 51.389v-6.446h-3zM6 2.996h60v41.946H6V2.996zM69 50.48l-2.303 3.45H5.303L3 50.48v-2.542h66v2.542z"/><path fill="#D5D5D5" d="M66 2.996H6v41.946h60V2.996zm-40.939 30.4l-2.121 2.119-11.561-11.546L22.94 12.424l2.121 2.118-9.439 9.427 9.439 9.427zm6.338 6.11l-2.786-1.111L40.604 8.428 43.39 9.54 31.399 39.506zm17.662-3.99l-2.121-2.119 9.439-9.428-9.439-9.427 2.121-2.118 11.561 11.545-11.561 11.547z"/><path fill="#D71F2A" d="M46.939 14.542l9.44 9.427-9.44 9.427 2.122 2.12 11.56-11.547-11.56-11.545zm-24-2.118l-11.56 11.545 11.56 11.547 2.122-2.12-9.44-9.427 9.44-9.427zm5.674 25.971l2.786 1.111L43.39 9.54l-2.786-1.112z"/><path fill="#2D2D2D" d="M28.5 49.437h3v2.996h-3zm6 0h3v2.996h-3zm6 0h3v2.996h-3z"/></svg>