<svg xmlns="http://www.w3.org/2000/svg" width="48.002" height="48.003" viewBox="0 0 48.002 48.003"><path fill="#2D2D2D" d="M47.706 23.285L24.718.297a1.013 1.013 0 0 0-1.433 0L.297 23.285a1.014 1.014 0 0 0 0 1.434l22.987 22.988a1.014 1.014 0 0 0 1.434 0L41.29 31.134a1.016 1.016 0 0 0 0-1.434 1.016 1.016 0 0 0-1.434 0L24.001 45.556 2.446 24.001 24.001 2.446l22.271 22.272a1.015 1.015 0 0 0 1.434-1.433zm-19.573.972a1.014 1.014 0 0 0 1.433 0l3.104-3.105a1.012 1.012 0 0 0 0-1.432l-3.104-3.104a1.013 1.013 0 1 0-1.433 1.432l1.374 1.375h-11.6c-.561 0-1.014.453-1.014 1.014v13.338a1.014 1.014 0 0 0 2.026 0V21.449h10.588l-1.374 1.375a1.013 1.013 0 0 0 0 1.433z"/></svg>