<svg xmlns="http://www.w3.org/2000/svg" width="38" height="23.006" viewBox="0 0 38 23.006"><path fill="#2D2D2D" d="M37.974 1.936A1.946 1.946 0 0 0 36.027 0h-.002L1.943.047C1.423.047.934.25.567.617A1.92 1.92 0 0 0 0 1.989l.026 19.082c0 .518.203 1.004.571 1.369s.855.566 1.375.566h.002l34.082-.047a1.943 1.943 0 0 0 1.943-1.941l-.025-19.082zm-4.084.006L19.001 12.254 4.085 1.983l29.805-.041zM25.296 14.2l8.83 6.824-30.279.041 8.885-6.865c.424-.328.502-.936.172-1.359s-.941-.5-1.365-.172l-9.568 7.393L1.947 2.87l16.501 11.363a.977.977 0 0 0 1.11-.002L36.029 2.823l.025 17.234-9.564-7.389c-.424-.328-1.035-.252-1.365.172s-.252 1.032.171 1.36z"/></svg>