<svg version="1.1" xmlns="http://www.w3.org/2000/svg" xmlns:xlink="http://www.w3.org/1999/xlink" width="22" height="24"><defs/><g><path fill="rgb(0,0,0)" stroke="none" paint-order="stroke fill markers" fill-rule="evenodd" d=" M 10.501190185546875 2.1899964809417725 C 10.501190185546875 2.1899964809417725 1.214080810546875 11.483236968517303 1.214080810546875 11.483236968517303 C 1.0934600830078125 11.603564381599426 1.007476806640625 11.792964935302734 1.007476806640625 11.982165277004242 C 1.007476806640625 12.17156583070755 1.0934600830078125 12.360766172409058 1.214080810546875 12.481293797492981 C 1.214080810546875 12.481293797492981 10.501190185546875 21.77433407306671 10.501190185546875 21.77433407306671 C 10.776229858398438 22.04962557554245 11.223312377929688 22.04962557554245 11.498580932617188 21.77433407306671 C 11.636138916015625 21.636588215827942 11.7049560546875 21.46460610628128 11.7049560546875 21.275205552577972 C 11.7049560546875 21.086005210876465 11.636138916015625 20.913822889328003 11.498580932617188 20.776277244091034 C 11.498580932617188 20.776277244091034 3.415313720703125 12.687712371349335 3.415313720703125 12.687712371349335 C 3.415313720703125 12.687712371349335 20.286880493164062 12.687712371349335 20.286880493164062 12.687712371349335 C 20.682540893554688 12.687712371349335 20.9920654296875 12.377984404563904 20.9920654296875 11.982165277004242 C 20.9920654296875 11.58634614944458 20.682540893554688 11.27661818265915 20.286880493164062 11.27661818265915 C 20.286880493164062 11.27661818265915 3.415313720703125 11.27661818265915 3.415313720703125 11.27661818265915 C 3.415313720703125 11.27661818265915 11.498580932617188 3.1882535219192505 11.498580932617188 3.1882535219192505 C 11.773696899414062 2.9127618074417114 11.773696899414062 2.4654881954193115 11.498580932617188 2.1899964809417725 C 11.223312377929688 1.914704978466034 10.776229858398438 1.9319232106208801 10.501190185546875 2.1899964809417725 Z"/></g></svg>