<svg xmlns="http://www.w3.org/2000/svg" width="70" height="69.688" viewBox="0 0 70 69.688"><path fill="#D5D5D5" d="M67.083 28.747v-6.252L44.094 45.381l-.812.808-.057.057-5.124-5.1-4.676-4.655-9.987 9.943-1.067 1.062-.917-.914-3.982-3.964-9.207 9.165-1.12-1.115-4.228 4.228v11.889h65.681V28.747z"/><path fill="#D71F2A" d="M58.742 17.539v2.903h6.279L43.225 42.141l-9.8-9.756-11.054 11.004-4.899-4.877L6.202 49.73l.943.938 1.12 1.115 9.207-9.165 3.982 3.964.917.914 1.067-1.062 9.987-9.943 4.676 4.655 5.124 5.1.057-.057.812-.808 22.989-22.886v6.252H70V17.539z"/><path fill="#2D2D2D" d="M63.875 66.785H2.917V0H0v69.688h70v-2.903h-1.402z"/></svg>