<svg xmlns="http://www.w3.org/2000/svg" width="150.495" height="29.775" viewBox="0 0 150.495 29.775"><path d="M42.136 22.299c.512-.792.768-1.7.768-2.724 0-.784-.111-1.485-.313-2.119a4.93 4.93 0 0 0-.787-1.501l-4.231.51-3.717.448-4.512.543v12.079h4.512v-4.512h1.272c.336 0 .596.06.779.18.185.12.34.324.469.611l1.632 3.721h4.704l-1.776-4.057a5.65 5.65 0 0 0-.432-.839 2.309 2.309 0 0 0-.456-.504 5.122 5.122 0 0 0 2.088-1.836zm-4.38-1.248c-.36.344-.868.516-1.524.516h-2.376v-4.032h2.521c1.279 0 1.92.68 1.92 2.04-.001.64-.182 1.132-.541 1.476zm7.907-3.595v12.079h11.712v-3.456h-7.2v-2.52h6.312v-3.504h-6.312v-2.52h7.2v-3.456L45.663 15.49zm22.464 4.471l-3.84-7.848h-4.391v15.456h4.511v-7.728l2.496 5.088h2.424l2.473-5.088v7.728h4.512V14.079h-4.369zm18.84-8.088c-2.624 0-4.596.632-5.916 1.896s-1.98 3.304-1.98 6.12c0 2.736.664 4.74 1.992 6.012s3.296 1.908 5.904 1.908c2.607 0 4.575-.64 5.904-1.921 1.327-1.279 1.991-3.279 1.991-6 0-2.8-.659-4.836-1.979-6.108s-3.292-1.907-5.916-1.907zm2.508 11.124c-.521.648-1.355.971-2.508.971s-1.988-.323-2.508-.971c-.521-.648-.78-1.684-.78-3.108 0-1.503.256-2.576.768-3.216.513-.64 1.353-.96 2.521-.96s2.008.32 2.52.96c.513.64.769 1.712.769 3.216-.002 1.424-.263 2.459-.782 3.108zm5.868-7.525h4.344v12.097h4.511V17.438h4.345v-3.359h-13.2zm15.479 12.097h11.712v-3.456h-7.2v-2.52h6.312v-3.504h-6.312v-2.52h7.2v-3.456h-11.712zm18.744-15.456h-4.511v15.456h11.471v-3.456h-6.96zm16.226 0l-3.122 5.832-3.119-5.832h-4.705l5.569 9.792v5.664h4.511v-5.664l5.569-9.792zM9.84 5.76H4.512V0H0v15.456h4.512v-5.76H9.84v5.76h4.512V0H9.84zM17.592 0h4.512v15.456h-4.512zm12.263 12.079v-1.135h1.272c.336 0 .596.06.779.18.185.12.34.324.469.612l.15.343 1.046 2.386 4.231-.51.238-.028-.809-1.848-.295-.679a5.62 5.62 0 0 0-.432-.84 2.309 2.309 0 0 0-.456-.504 5.122 5.122 0 0 0 2.088-1.836c.512-.792.768-1.7.768-2.724 0-1.68-.464-3.016-1.392-4.008S35.208 0 33.384 0h-8.04v15.456l4.512-.543v-2.834zm0-8.623h2.521c1.279 0 1.92.68 1.92 2.04 0 .64-.181 1.132-.54 1.476-.36.344-.868.516-1.524.516h-2.376V3.456zM53.375 12h-7.2V9.48h6.312V5.976h-6.312v-2.52h7.2V0H41.663v13.49l11.712-1.411z" fill="#D71F2A"/></svg>