<svg xmlns="http://www.w3.org/2000/svg" width="74" height="69" viewBox="0 0 74 69"><path fill="#2D2D2D" d="M0 0v54h29v6h-9v9h34v-9h-9v-6h29V0H0zm51 63v3H23v-3h28zm-9-3H32v-6h10v6zm29-9H3v-6h68v6zM3 42V3h68v39H3z"/><path fill="#D5D5D5" d="M3 3h68v39H3z"/><path fill="#2D2D2D" d="M35.307 31.754C33.758 28.61 28.59 18.15 25.67 12.245c-.633-1.285-1.146-2.426-1.146-2.465h4.225c2.781 5.575 5.557 11.158 8.338 16.733 3.006-6.023 5.76-11.658 8.258-16.733h4.133A3169.63 3169.63 0 0 1 37.82 33.598l-.805 1.621-1.708-3.465z"/><path fill="#D71F2A" d="M31.404 9.787h11.178c0 .053-5.521 11.164-5.549 11.164-1.84-3.783-4.06-7.783-5.629-11.164z"/></svg>